<svg width="391" height="593" viewBox="0 0 391 593" fill="none" xmlns="http://www.w3.org/2000/svg">
<path d="M203.71 149.773L203.215 132.664C203.215 132.664 224.003 134.319 228.45 132.009C228.45 132.009 233.885 104.002 227.403 88.4931L227.271 87.8892L183.403 82.7566L180.673 107.629C179.196 103.27 167.27 98.6311 164.082 104.874C157.174 118.4 181.875 127.508 181.875 127.508L179.368 149.979" fill="#E576C6"/>
<path opacity="0.400274" fill-rule="evenodd" clip-rule="evenodd" d="M203.215 132.663L189.197 129.657L203.147 139.082L203.215 132.663Z" fill="black"/>
<path fill-rule="evenodd" clip-rule="evenodd" d="M214.778 104.704L219.621 116.548L213.816 116.622L214.778 104.704Z" fill="#2437A8"/>
<path fill-rule="evenodd" clip-rule="evenodd" d="M209.255 108.07C209.543 109.665 208.484 111.191 206.889 111.48C205.295 111.769 203.768 110.709 203.48 109.115C203.191 107.52 204.25 105.993 205.845 105.704C207.44 105.416 208.966 106.475 209.255 108.07" fill="#0D0B6D"/>
<path fill-rule="evenodd" clip-rule="evenodd" d="M224.49 108.07C224.778 109.665 223.719 111.191 222.124 111.48C220.53 111.769 219.003 110.709 218.715 109.115C218.426 107.52 219.485 105.993 221.08 105.704C222.675 105.416 224.201 106.475 224.49 108.07" fill="#0D0B6D"/>
<path fill-rule="evenodd" clip-rule="evenodd" d="M208.755 119.976C208.755 119.976 210.784 123.266 214.803 122.987Z" fill="white"/>
<path d="M208.755 119.976C208.755 119.976 210.784 123.266 214.803 122.987" stroke="#252535" stroke-width="4"/>
<path fill-rule="evenodd" clip-rule="evenodd" d="M180.938 107.894C177.663 104.497 174.098 103.058 171.935 102.46L172.348 93.888L192.955 90.2942C191.535 99.8574 186.019 105.075 180.938 107.894V107.894Z" fill="#EACB47"/>
<path fill-rule="evenodd" clip-rule="evenodd" d="M228.619 91.8374C226.763 90.0709 214.662 89.5238 200.117 90.6441C196.734 90.9047 193.49 91.2329 190.491 91.6133C180.576 92.8587 173.281 94.6303 172.093 96.1883C170.776 76.721 182.697 65.1271 198.305 64.0485C208.545 63.3398 217.831 67.3365 223.389 75.6632C226.234 79.9308 228.105 85.3396 228.619 91.8374" fill="#393954"/>
<path fill-rule="evenodd" clip-rule="evenodd" d="M228.853 92.2229H228.848C228.828 92.0875 228.749 91.9572 228.619 91.8374C226.763 90.0709 214.662 89.5238 200.117 90.6441C196.733 90.9046 193.49 91.2329 190.491 91.6133C194.757 87.5593 202.561 81.1501 211.768 78.2738C215.705 77.0441 219.697 76.1478 223.389 75.6632C232.351 74.4752 239.542 75.6945 239.901 80.3477C240.365 86.4025 230.4 91.4726 228.853 92.2229" fill="#161629"/>
<path fill-rule="evenodd" clip-rule="evenodd" d="M102.179 457.269L117.528 443.185L112.196 428.94L79.3457 453.345L105.956 499.823C105.956 499.823 106.811 488.273 105.42 475.479C104.459 466.64 102.179 457.269 102.179 457.269ZM248.996 488.423L245.49 477.116L230.648 477.901L243.001 508.953L290.45 481.448C276.369 477.183 248.996 488.423 248.996 488.423Z" fill="#0D0B6D"/>
<path fill-rule="evenodd" clip-rule="evenodd" d="M113.659 446.775L111.972 428.926L93.0645 443.243L102.179 457.269L113.659 446.775ZM246.108 479.027L231.434 480.349L236.851 493.491L248.996 488.423L246.108 479.027Z" fill="#E576C6"/>
<path d="M171.546 311.408L152.057 247.941H202.073L228.4 247.941C228.449 263.466 226.623 289.037 216.958 318.154L247.645 462.895C248.027 464.712 247.382 466.527 246.072 467.702L250.735 484.282L231.676 489.839L227.136 474.388L227.017 474.427C224.314 475.321 221.405 473.82 220.573 471.107L190.253 372.36C186.834 377.408 183.108 382.446 179.059 387.448C153.419 419.122 137.439 436.204 129.22 444.421C126.287 447.36 121.722 447.504 118.627 445.103L106.907 454.767L95.2705 438.737L106.853 429.186C104.996 426.205 105.302 422.329 107.674 419.684C119.484 406.489 152.718 366.192 171.546 311.408L171.546 311.408Z" fill="#19141E"/>
<mask id="mask0" mask-type="alpha" maskUnits="userSpaceOnUse" x="95" y="247" width="156" height="243">
<path d="M171.546 311.408L152.057 247.941H202.073L228.4 247.941C228.449 263.466 226.623 289.037 216.958 318.154L247.645 462.895C248.027 464.712 247.382 466.527 246.072 467.702L250.735 484.282L231.676 489.839L227.136 474.388L227.017 474.427C224.314 475.321 221.405 473.82 220.573 471.107L190.253 372.36C186.834 377.408 183.108 382.446 179.059 387.448C153.419 419.122 137.439 436.204 129.22 444.421C126.287 447.36 121.722 447.504 118.627 445.103L106.907 454.767L95.2705 438.737L106.853 429.186C104.996 426.205 105.302 422.329 107.674 419.684C119.484 406.489 152.718 366.192 171.546 311.408L171.546 311.408Z" fill="white"/>
</mask>
<g mask="url(#mask0)">
</g>
<path opacity="0.0987491" fill-rule="evenodd" clip-rule="evenodd" d="M227.135 474.388L227.016 474.427C224.314 475.321 221.404 473.82 220.572 471.107L190.253 372.36L171.546 311.408L152.057 247.941H202.072L216.957 318.154L247.645 462.895C248.026 464.712 247.381 466.527 246.071 467.702L250.735 484.282L231.675 489.839L227.135 474.388V474.388Z" fill="white"/>
<path d="M237.358 470.549L229.331 473.403L197.12 361.566L177.248 292.573L164.396 247.941H180.687L183.551 259.196L205.622 345.885L237.358 470.549Z" fill="#EFEFEF"/>
<path fill-rule="evenodd" clip-rule="evenodd" d="M175.183 146.538C176.512 148.864 182.342 157.463 196.159 158.277C209.505 159.056 208.515 151.981 207.819 149.615C207.507 149.529 207.194 149.442 206.88 149.355C203.945 148.542 200.821 147.676 196.544 147.232C184.866 146.021 183.95 145.932 175.183 146.538ZM280.962 184.052C274.611 196.54 252.315 237.535 236.421 230.996C224.52 226.1 210.274 185.51 210.274 185.51L233.432 171.709L243.838 199.602L265.085 176.487C264.364 171.907 263.786 165.919 265.224 163.809C267.673 160.216 280.062 149.147 280.062 149.147L282.318 167.901L282.712 166.32C282.711 166.232 282.733 166.137 282.777 166.034C282.782 166.024 282.786 166.014 282.791 166.004L283.703 162.345C283.32 162.151 283.163 161.875 283.329 161.494C283.463 161.184 283.756 160.844 284.166 160.487L287.28 147.992C287.28 147.992 288.301 148.447 289.8 149.129C292.209 148.632 300.936 154.572 301.068 154.663L301.07 154.664C302.847 155.813 298.621 174.808 295.188 178.336C292.746 180.847 285.146 183.011 280.962 184.052ZM139.087 268.751L140.506 271.448C140.506 271.448 141.79 273.651 143.134 277.497C143.631 278.919 143.868 280.136 144.116 281.411C144.539 283.586 144.994 285.928 146.827 289.736C150.127 296.592 144.224 293.765 142.107 290.772C141.412 289.789 141.042 288.659 140.688 287.576C140.2 286.086 139.741 284.683 138.501 283.864C138.439 283.963 138.37 284.066 138.295 284.177C137.505 285.356 136.064 287.505 135.228 296.543C135.064 298.317 135.867 304.073 135.867 304.073C135.869 304.201 135.871 304.34 135.874 304.487C135.905 306.316 135.96 309.434 134.145 309.942C133.659 310.079 133.027 309.541 133.027 309.541C133.027 309.541 133.217 311.791 131.213 312.239C130.426 312.415 128.861 307.556 128.861 307.556C128.861 307.556 128.623 310.024 127.126 310.298C126.703 310.375 121.709 296.298 121.709 296.298L122.01 299.478L122.673 302.734C122.673 302.734 122.619 304.487 121.213 304.797C120.655 304.92 119.583 301.997 118.579 298.557C117.017 293.205 117.049 289.183 117.509 285.183C117.62 284.213 117.699 283.373 117.772 282.6C118.061 279.525 118.248 277.537 119.965 272.8C120.222 272.091 120.567 271.277 120.952 270.44C119.773 260.251 116.451 230.426 116.859 221.27C117.352 210.164 129.102 185.51 129.102 185.51L152.958 198.865L139.809 222.856L139.087 268.751Z" fill="#E576C6"/>
<path fill-rule="evenodd" clip-rule="evenodd" d="M152.238 248.224H228.772L231.576 200.918L245.009 193.078L235.598 171.411L235.515 171.427C235.123 170.639 234.693 169.822 234.222 168.973C228.381 158.437 218.39 152.496 207.819 149.615C207.648 149.568 207.579 149.534 207.571 149.545C207.55 149.573 207.917 149.882 208.022 150.963C208.169 152.473 207.692 154.523 207.191 155.146C206.009 156.616 204.224 157.45 203.506 157.646C202.788 157.842 202.219 157.957 201.583 158.083C201.138 158.172 198.606 158.359 198.168 158.337C194.565 158.148 192.798 157.981 190.529 157.442C189.726 157.251 188.895 157.033 187.909 156.617C187.724 156.54 187.522 156.456 187.305 156.367C186.24 155.929 184.821 155.345 183.38 154.539C181.857 153.686 180.304 152.562 179.18 151.414C179.072 151.303 178.966 151.195 178.863 151.09C177.683 149.886 176.878 149.065 176.32 148.241C175.943 147.684 175.8 147.498 175.717 147.39C175.666 147.324 175.637 147.286 175.59 147.21C175.467 147.01 175.36 146.834 175.33 146.715C175.297 146.588 175.414 146.534 175.41 146.521C175.407 146.513 175.355 146.521 175.183 146.538C169.796 147.071 164.007 148.463 157.694 151.414C138.167 160.534 126.755 183.451 126.755 183.451L150.955 201.572L152.238 248.224Z" fill="#76C08A"/>
<path opacity="0.200521" d="M150.954 201.569L157.092 205.729L171.848 188.572" stroke="black" stroke-width="5"/>
<path d="M291.101 171.241L290.032 176.479H272.716L280.884 134.777H298.2C297.751 137.068 296.694 142.466 295.029 150.969L291.624 149.393L290.563 149.1L289.728 149.147L289.366 149.393V150.406L293.068 155.722L290.236 156.954L285.88 159.236L284.621 160.107L284.133 160.558L283.735 160.914L283.481 161.22L283.329 161.494L283.263 161.849L283.329 162.006L283.405 162.127L283.515 162.236L284.943 162.74L288.2 161.849H291.42L287.122 162.74L284.291 164.432L283.329 165.337L282.785 166.003V166.612L283.735 167.039L289.728 166.352L287.744 167.43L286.429 168.244L285.223 168.865L284.291 170.066V170.659L284.621 171.007L285.458 171.452H286.735H289.306L291.101 171.241Z" fill="#5E93D1"/>
<path fill-rule="evenodd" clip-rule="evenodd" d="M272.714 176.479H269.849L278.017 134.777H280.881L272.714 176.479Z" fill="#020101"/>
<path fill-rule="evenodd" clip-rule="evenodd" d="M283.863 139.619C283.624 140.837 282.914 141.724 282.278 141.6C281.643 141.476 281.321 140.388 281.561 139.17C281.8 137.952 282.51 137.065 283.146 137.189C283.781 137.313 284.103 138.401 283.863 139.619" fill="#020101"/>
</svg>
