<svg width="364" height="551" viewBox="0 0 364 551" fill="none" xmlns="http://www.w3.org/2000/svg">
<path fill-rule="evenodd" clip-rule="evenodd" d="M215.907 84.6447C215.907 92.3212 210.965 98.544 204.87 98.544C198.775 98.544 193.833 92.3212 193.833 84.6447C193.833 76.9682 198.775 70.7454 204.87 70.7454C210.965 70.7454 215.907 76.9682 215.907 84.6447Z" fill="#19141E"/>
<path d="M189.789 139.707L189.327 123.743C189.327 123.743 208.705 125.288 212.85 123.132C212.85 123.132 217.917 96.9998 211.874 82.5287L211.752 81.9652L170.859 77.1766L168.566 100.668C167.188 96.6007 155.82 91.9886 152.848 97.8132C146.408 110.434 169.435 118.932 169.435 118.932L167.097 139.899" fill="#E576C6"/>
<path opacity="0.398926" fill-rule="evenodd" clip-rule="evenodd" d="M189.327 123.743L176.26 120.938L189.264 129.732L189.327 123.743Z" fill="black"/>
<path fill-rule="evenodd" clip-rule="evenodd" d="M199.772 100.37L204.288 111.421L198.876 111.49L199.772 100.37Z" fill="#405FD3"/>
<path fill-rule="evenodd" clip-rule="evenodd" d="M194.957 100.795C195.226 102.283 194.238 103.708 192.752 103.977C191.265 104.246 189.842 103.258 189.574 101.77C189.304 100.282 190.291 98.8571 191.778 98.5878C193.265 98.3189 194.688 99.3068 194.957 100.795Z" fill="#0D0B6D"/>
<path fill-rule="evenodd" clip-rule="evenodd" d="M210.13 100.795C210.4 102.283 209.412 103.708 207.926 103.977C206.439 104.246 205.016 103.258 204.747 101.77C204.478 100.282 205.465 98.8571 206.952 98.5878C208.439 98.3189 209.861 99.3068 210.13 100.795Z" fill="#0D0B6D"/>
<path d="M171.603 104.678C167.725 98.0349 162.116 96.0089 159.598 95.4148C158.594 92.509 157.828 89.1389 157.29 85.5547C155.847 75.9621 162.815 67.2101 168.442 64.697C174.138 62.1537 183.96 58.6292 198.338 63.4134C208.003 66.632 214.182 58.9263 219.869 62.2174C229.588 67.8426 220.548 92.4703 195.904 86.214C178.275 81.7386 177.822 82.8612 177.671 86.1143C177.182 96.6296 175.544 102.816 171.603 104.678Z" fill="#2F2F3D"/>
<path fill-rule="evenodd" clip-rule="evenodd" d="M192.255 111.901C192.255 111.901 193.993 115.061 197.748 114.986L192.255 111.901Z" fill="white"/>
<path d="M192.255 111.901C192.255 111.901 193.993 115.061 197.748 114.986" stroke="#252535" stroke-width="2"/>
<path fill-rule="evenodd" clip-rule="evenodd" d="M198.462 100.928C198.462 104.387 195.659 107.192 192.203 107.192C188.747 107.192 185.945 104.387 185.945 100.928C185.945 97.4679 188.747 94.6631 192.203 94.6631C195.659 94.6631 198.462 97.4679 198.462 100.928Z" stroke="#252535" stroke-width="2"/>
<path fill-rule="evenodd" clip-rule="evenodd" d="M214.219 100.928C214.219 104.387 211.417 107.192 207.961 107.192C204.505 107.192 201.703 104.387 201.703 100.928C201.703 97.4679 204.505 94.6631 207.961 94.6631C211.417 94.6631 214.219 97.4679 214.219 100.928Z" stroke="#252535" stroke-width="2"/>
<path d="M201.193 101.218H198.487" stroke="#252535" stroke-width="4"/>
<path d="M185.945 100.927H170.486" stroke="#252535" stroke-width="2"/>
<path fill-rule="evenodd" clip-rule="evenodd" d="M205.881 498.506L206.033 485.414L189.145 476.911L186.694 514.339H245.205C235.249 503.13 205.881 498.506 205.881 498.506ZM130.931 499.017L131.083 484.311L120.073 493.272L111.213 498.203L108.289 514.339H148.336C143.3 500.631 130.931 499.017 130.931 499.017Z" fill="#0D0B6D"/>
<path fill-rule="evenodd" clip-rule="evenodd" d="M131.083 484.311L114.195 479.238L111.212 498.203L130.931 499.016L131.083 484.311ZM206.032 485.413L189.144 480.341L187.782 497.693L205.881 498.506L206.032 485.413Z" fill="#E576C6"/>
<path d="M208.454 481.121L208.064 493.272H185.787L186.178 481.085C183.682 480.084 181.899 477.677 181.838 474.834L178.253 292.832L139.508 476.578C138.962 479.163 137.044 481.17 134.608 481.91L133.151 493.272H109.794L111.804 480.728C109.859 479.221 108.732 476.742 109.12 474.095L144.791 230.562L177.026 230.562L177.024 230.469H216.067L213.727 474.493C213.694 477.702 211.461 480.387 208.454 481.121Z" fill="#2F2F3D"/>
<path opacity="0.197824" fill-rule="evenodd" clip-rule="evenodd" d="M178.054 295.715L184.89 265.424L179.747 357.26L178.054 295.715Z" fill="black"/>
<path d="M153.13 230.791L156.872 231.401L116.07 479.578L112.318 478.952L153.13 230.791Z" fill="#EFEFEF"/>
<path fill-rule="evenodd" clip-rule="evenodd" d="M269.693 147.084L269.425 142.463C269.425 142.463 269.431 139.248 269.849 135.777C269.954 134.906 270.184 133.996 270.43 133.023C271.165 130.12 272.039 126.665 270.128 122.075C267.576 115.953 273.676 120.18 275.027 123.092C275.549 124.217 275.701 125.918 275.852 127.606C276.027 129.557 276.199 131.491 276.941 132.493C278.11 131.859 278.887 131.034 278.887 131.034L292.037 114.095C292.461 113.526 293.243 113.355 293.871 113.691L294.578 114.074C295.323 114.479 295.559 115.426 295.082 116.118C294.17 117.448 292.577 119.691 290.913 122.035L290.912 122.036C287.892 126.29 284.635 130.877 284.773 130.949L285.122 131.369L300.566 115.197C301.049 114.66 301.858 114.564 302.453 114.974L303.381 115.612C304.056 116.076 304.201 117.002 303.697 117.641C302.05 119.753 297.973 124.327 294.579 128.134C291.643 131.429 289.217 134.15 289.319 134.207L289.78 134.649L304.158 122.038C304.667 121.473 305.536 121.41 306.125 121.883L306.828 122.453C307.444 122.948 307.535 123.848 307.031 124.454L293.452 137.135L293.844 137.747L305.632 129.522C306.174 129.043 306.989 129.043 307.535 129.517L307.862 129.81C308.441 130.321 308.506 131.199 308.002 131.79C307.199 132.733 305.611 133.972 303.718 135.448L303.718 135.448C301.539 137.148 298.956 139.162 296.701 141.404C295.46 142.639 294.458 143.849 293.444 145.076L293.444 145.076L293.444 145.076C291.786 147.079 290.094 149.125 287.261 151.39C285.57 152.748 284.04 153.537 282.583 154.288C282.377 154.394 282.173 154.5 281.97 154.606L269.693 147.084ZM163.704 136.483C163.704 136.483 172.789 136.465 179.346 136.443C185.902 136.421 194.147 139.173 194.147 139.173C194.147 139.173 198.437 148.796 183.534 147.924C168.631 147.052 163.704 136.483 163.704 136.483ZM114.014 175.421C114.014 175.421 99.4701 197.216 99.7998 209.336C100.189 223.627 145.941 258.742 145.941 258.742L157.798 249.099L128.995 209.009L139.47 186.733L114.014 175.421Z" fill="#E576C6"/>
<path d="M154.353 231.625L161.436 241.113L140.102 259.676C140.102 259.676 100.954 231.031 99.7449 208.572C98.9751 194.267 111.511 173.848 111.511 173.848C111.511 173.848 127.246 148.743 145.436 140.27C149.168 138.531 158.219 137.081 163.705 136.482C165.386 136.299 164.381 136.953 164.958 138.06C165.561 139.217 167.397 140.931 168.667 142.212C171.311 144.878 176.521 146.897 179.319 147.31C181.452 147.625 185.573 148.113 187.556 147.848C189.539 147.582 191.694 146.688 192.27 146.157C192.846 145.627 193.703 144.962 194.148 143.939C194.592 142.916 194.57 143.209 194.57 142.266C194.57 141.322 194.521 141.461 194.428 141.012C194.336 140.563 194.336 140.293 194.281 140.061C194.04 139.034 194.148 139.173 194.148 139.173C204.885 142.411 210.324 143.609 214.236 148.319L244.13 169.262L264.584 142.618L290.975 160.307C290.975 160.307 267.608 203.767 250.673 208.572C237.031 212.443 223.212 200.406 218.353 195.578L224.126 224.834C225.051 229.886 220.62 231.797 216.673 231.618L154.353 231.625Z" fill="#8FDBA3"/>
<path opacity="0.201242" fill-rule="evenodd" clip-rule="evenodd" d="M218.262 195.595L214.689 181.5L224.336 200.763L218.262 195.595Z" fill="black"/>
<path opacity="0.200591" d="M151.704 228.227L135.044 204.641L155.168 174.175" stroke="black" stroke-width="2"/>
</svg>
